<svg width="128" height="24" viewBox="0 0 128 24" fill="none" xmlns="http://www.w3.org/2000/svg">
<path d="M121.381 11.7824C122.845 10.8898 123.886 9.95258 124.506 8.97071C125.181 7.98884 125.463 6.91771 125.35 5.75732C125.125 4.01673 124.28 2.63319 122.817 1.6067C121.353 0.535566 119.58 0 117.497 0H106.013V19.9498H110.573V11.7824H115.977L122.479 19.9498H127.883L121.381 11.7824ZM120.959 5.75732C120.903 6.56067 120.565 7.1855 119.946 7.6318C119.383 8.03347 118.567 8.23431 117.497 8.23431H110.573V3.54812H117.497C118.792 3.59275 119.692 3.86053 120.199 4.35147C120.706 4.8424 120.959 5.31102 120.959 5.75732ZM71.1386 12.5188L77.0495 19.9498H82.4538L74.0941 9.37238L71.1386 12.5188ZM80.8494 0H75.0229L63.0322 12.5858V0H58.388V18.2092C58.388 18.5662 58.5287 18.9233 58.8102 19.2803C59.0916 19.5927 59.5701 19.8159 60.2457 19.9498C60.5271 19.9944 60.8649 19.9721 61.259 19.8828C61.7093 19.7936 62.1034 19.5927 62.4412 19.2803L80.8494 0ZM90.9824 11.7155L100.018 11.7824V8.23431H90.9824V11.7155ZM102.382 0H84.3959V18.2092C84.4522 18.7001 84.6774 19.1241 85.0715 19.4812C85.5218 19.7936 86.0566 19.9498 86.6759 19.9498H102.382V16.4686H89.0402V3.54812H102.382V0ZM49.1838 0V12.5858L37.2776 0H31.3667V19.9498H36.011V4.75314L49.7749 19.2803C50.1127 19.5927 50.4786 19.7936 50.8727 19.8828C51.323 19.9721 51.6889 19.9944 51.9704 19.9498C52.6459 19.8159 53.1244 19.5927 53.4059 19.2803C53.6874 18.9233 53.8281 18.5662 53.8281 18.2092V0H49.1838ZM12.7051 1.07113L0.883301 19.9498H6.03423L14.9006 5.75732L23.7669 19.9498H28.8334L17.1805 1.13807C16.6739 0.423988 15.9139 0.066944 14.9006 0.066944C13.8873 0.066944 13.1555 0.401674 12.7051 1.07113ZM19.0382 17.1381H15.9983C15.9983 17.1381 15.9983 17.1158 15.9983 17.0711L16.5894 11.9833C16.5331 11.9386 16.505 11.9163 16.505 11.9163L9.91854 18.7448H10.003H13.0429C13.0429 18.7894 13.0429 18.8117 13.0429 18.8117L12.4518 23.9665C12.4518 24.0112 12.4799 24.0112 12.5362 23.9665L19.1227 17.205V17.1381H19.0382Z" fill="#00A7E1"/>
</svg>
