<svg width="61" height="60" viewBox="0 0 61 60" fill="none" xmlns="http://www.w3.org/2000/svg">
<g clip-path="url(#clip0_3334_642)">
<path d="M60.8833 0H0.883301V60H60.8833V0Z" fill="white"/>
<path d="M44.7466 20.7648C44.571 20.8731 40.7089 23.1216 40.7528 27.7995C40.8013 33.3947 45.6577 35.2579 45.7135 35.279C45.67 35.4122 44.937 37.9328 43.1536 40.536C41.6123 42.7912 40.0157 45.0336 37.4957 45.0804C35.02 45.1257 34.222 43.6115 31.3938 43.6115C28.5638 43.6115 27.678 45.0336 25.3368 45.1257C22.9045 45.2178 21.0527 42.6904 19.5 40.4476C16.3259 35.8578 13.8991 27.4763 17.1578 21.8201C18.7756 19.011 21.6672 17.2313 24.8046 17.1853C27.1941 17.1402 29.4475 18.7916 30.909 18.7916C32.3497 18.7916 34.9317 16.8665 37.9753 17.0916C39.1681 17.18 42.5543 17.5361 44.7466 20.7648ZM36.0973 14.0617C37.3899 12.4995 38.2596 10.3239 38.0201 8.15991C36.1597 8.23369 33.9097 9.39913 32.5753 10.9603C31.3804 12.3433 30.3309 14.5583 30.6159 16.6781C32.6895 16.8383 34.8058 15.6249 36.0973 14.0617Z" fill="#1D1D1F"/>
</g>
<defs>
<clipPath id="clip0_3334_642">
<rect width="60" height="60" fill="white" transform="translate(0.883301)"/>
</clipPath>
</defs>
</svg>
