<svg width="57" height="45" viewBox="0 0 57 45" fill="none" xmlns="http://www.w3.org/2000/svg">
<path d="M54.705 10.2605H11.9676L10.3875 1.69247C10.2975 1.22475 10.0553 0.805283 9.70323 0.507086C9.35116 0.20889 8.91147 0.050849 8.46069 0.0604736H0.753296V4.14047H6.88067L14.2412 43.3085C14.3313 43.7762 14.5735 44.1957 14.9255 44.4939C15.2776 44.7921 15.7173 44.9501 16.1681 44.9405H50.8513V40.8605H17.7481L16.1681 32.7005H50.8513C51.2968 32.712 51.7322 32.5597 52.0835 32.2696C52.4348 31.9795 52.6803 31.5695 52.7782 31.1093L56.6319 12.7493C56.6965 12.4466 56.695 12.1323 56.6275 11.8303C56.56 11.5283 56.4284 11.2466 56.2426 11.0066C56.0568 10.7667 55.8217 10.5747 55.5553 10.4454C55.2888 10.3161 54.9981 10.2528 54.705 10.2605ZM49.3099 28.6205H15.4359L12.7383 14.3405H52.2965L49.3099 28.6205Z" fill="#1A1A1A"/>
</svg>
