<svg width="91" height="79" viewBox="0 0 91 79" fill="none" xmlns="http://www.w3.org/2000/svg">
<path d="M83.8395 21.2906L55.402 7.71244C54.9821 7.5119 54.5106 7.40674 54.0313 7.40674C53.5521 7.40674 53.0806 7.5119 52.6607 7.71244L24.2232 21.2906C23.7773 21.5037 23.4055 21.8168 23.1465 22.1972C22.8876 22.5776 22.751 23.0113 22.751 23.4532C22.751 23.8951 22.8876 24.3288 23.1465 24.7092C23.4055 25.0896 23.7773 25.4027 24.2232 25.6158L51.1876 38.4903V64.9529L42.554 60.8301L39.8126 65.1528L52.6607 71.2877C53.0806 71.4882 53.5521 71.5934 54.0313 71.5934C54.5106 71.5934 54.9821 71.4882 55.402 71.2877L83.8395 57.7096C84.2856 57.4966 84.6575 57.1835 84.9167 56.8031C85.1758 56.4227 85.3125 55.9889 85.3126 55.5469V23.4532C85.3125 23.0113 85.1758 22.5774 84.9167 22.197C84.6575 21.8166 84.2856 21.5036 83.8395 21.2906ZM54.0313 12.6944L76.5681 23.4532L54.0313 34.212L31.4946 23.4532L54.0313 12.6944ZM79.6251 54.0879L56.8751 64.9504V38.4879L79.6251 27.6254V54.0879Z" fill="#E9AF4C"/>
<path d="M28.4375 39.5H5.6875V34.5625H28.4375V39.5ZM34.125 59.25H11.375V54.3125H34.125V59.25ZM39.8125 49.375H17.0625V44.4375H39.8125V49.375Z" fill="#E9AF4C"/>
</svg>
