<svg width="45" height="44" viewBox="0 0 45 44" fill="none" xmlns="http://www.w3.org/2000/svg">
<path d="M44.8663 31.218C44.8663 39.226 40.0724 44 32.031 44H29.402C28.187 44 27.1928 43.01 27.1928 41.8V29.106C27.1928 28.512 27.6789 28.006 28.2753 28.006L32.1635 27.94C32.4728 27.918 32.7379 27.698 32.8042 27.39L33.5774 23.188C33.6437 22.792 33.3344 22.418 32.9146 22.418L28.2091 22.484C27.5905 22.484 27.1045 22 27.0824 21.406L26.994 16.016C26.994 15.664 27.2812 15.356 27.6568 15.356L32.9588 15.268C33.3344 15.268 33.6216 14.982 33.6216 14.608L33.5332 9.32798C33.5332 8.95398 33.246 8.668 32.8705 8.668L26.9057 8.75602C23.2384 8.82202 20.3223 11.814 20.3886 15.466L20.499 21.516C20.5211 22.132 20.0351 22.616 19.4165 22.638L16.7655 22.682C16.3899 22.682 16.1028 22.968 16.1028 23.342L16.169 27.522C16.169 27.896 16.4562 28.182 16.8318 28.182L19.4828 28.138C20.1014 28.138 20.5874 28.622 20.6095 29.216L20.8083 41.756C20.8304 42.988 19.8363 44 18.5991 44H13.518C5.47655 44 0.682617 39.226 0.682617 31.196V12.782C0.682617 4.774 5.47655 0 13.518 0H32.031C40.0724 0 44.8663 4.774 44.8663 12.782V31.218Z" fill="black"/>
</svg>
