<svg width="698" height="815" viewBox="0 0 698 815" fill="none" xmlns="http://www.w3.org/2000/svg">
<path fill-rule="evenodd" clip-rule="evenodd" d="M404.709 34.544C446.356 34.1875 490.313 7.0478 527.742 25.3144C565.2 43.5956 580.094 89.6158 596.267 128.032C610.207 161.141 600.252 200.058 615.087 232.777C634.593 275.797 702.653 300.485 695.64 347.197C688.894 392.13 618.479 393.561 586.153 425.491C558.366 452.939 549.733 495.017 520.161 520.532C486.727 549.378 448.371 588.639 404.709 582.037C358.943 575.117 342.05 515.637 304.93 487.988C275.556 466.109 239.111 457.962 209.391 436.555C173.022 410.358 127.878 389.262 110.504 347.944C93.0859 306.52 92.862 253.343 116.206 214.945C140.264 175.371 203.314 179.341 234.061 144.707C262.516 112.653 246.676 50.6588 282.687 27.4122C317.352 5.03406 363.45 34.8972 404.709 34.544Z" stroke="#F5C30F" stroke-width="3"/>
<path fill-rule="evenodd" clip-rule="evenodd" d="M308.709 17.544C350.356 17.1875 394.313 -9.9522 431.742 8.31437C469.2 26.5956 484.094 72.6158 500.267 111.032C514.207 144.141 504.252 183.058 519.087 215.777C538.593 258.797 606.653 283.485 599.64 330.197C592.894 375.13 522.479 376.561 490.153 408.491C462.366 435.939 453.733 478.017 424.161 503.532C390.727 532.378 352.371 571.639 308.709 565.037C262.943 558.117 246.05 498.637 208.93 470.988C179.556 449.109 143.111 440.962 113.391 419.555C77.0218 393.358 31.8782 372.262 14.5044 330.944C-2.91405 289.52 -3.13801 236.343 20.2057 197.945C44.2643 158.371 107.314 162.341 138.061 127.707C166.516 95.6528 150.676 33.6588 186.687 10.4122C221.352 -11.9659 267.45 17.8972 308.709 17.544Z" stroke="#F5C30F" stroke-width="3"/>
<path fill-rule="evenodd" clip-rule="evenodd" d="M301.14 385.021C304.113 429.296 495.682 559.646 496.8 563.303C497.546 565.742 437.171 717.452 437.171 717.452L453.918 724.549C453.918 724.549 546.521 563.878 541.764 546.759C534.955 522.247 393.128 385.492 393.128 385.492L301.14 385.021Z" fill="#B28B67"/>
<path fill-rule="evenodd" clip-rule="evenodd" d="M441.578 694.609L468.92 705.466C526.571 634.508 549.169 575.958 545.049 546.126C540.929 516.296 396.924 385.129 396.924 385.129H299.179C302.513 487.664 480.075 563.694 482.45 568.062C484.826 572.431 461.452 615.225 441.578 694.609Z" fill="#2F3676"/>
<path fill-rule="evenodd" clip-rule="evenodd" d="M435.738 713.572C434.456 712.221 432.385 712.241 431.237 713.73C428.969 716.668 425.61 721.32 424.628 724.265C423.103 728.836 421.572 738.165 421.572 738.165C426.436 740.096 508.98 772.87 508.98 772.87C508.98 772.87 516.487 761.936 509.474 758.041C502.46 754.146 497.868 751.43 497.868 751.43L463.738 715.442C463.122 714.791 462.135 714.826 461.556 715.517L456.553 721.495C456.553 721.495 448.603 722.255 444.355 720.57C441.693 719.513 438.072 716.029 435.738 713.572Z" fill="#E4E4E4"/>
<path fill-rule="evenodd" clip-rule="evenodd" d="M323.165 385.021L237.827 608.515L153.951 797.459H173.74L390.244 385.021H323.165Z" fill="#997659"/>
<path fill-rule="evenodd" clip-rule="evenodd" d="M157.086 786.604C155.458 785.815 153.52 786.605 152.907 788.434C151.698 792.041 150 797.664 150 800.799C150 805.665 151.486 815 151.486 815C156.661 815 244.504 815 244.504 815C244.504 815 248.129 801.925 240.318 800.882C232.506 799.839 227.338 798.998 227.338 798.998L183.985 777.914C183.202 777.535 182.286 777.934 181.959 778.799L179.13 786.284C179.13 786.284 171.898 789.966 167.377 789.966C164.545 789.966 160.05 788.043 157.086 786.604Z" fill="#E4E4E4"/>
<path fill-rule="evenodd" clip-rule="evenodd" d="M161.525 758.209L205.496 767.205C239.495 712.679 381.779 489.101 397.379 385.021H299.49C247.393 460.261 193.933 702.781 161.525 758.209Z" fill="#5C63AB"/>
<path fill-rule="evenodd" clip-rule="evenodd" d="M368.321 190.938C377.13 200.574 386.56 206.64 391.646 206.599C404.398 206.492 416.415 158.966 411.443 137.585C406.473 116.204 360.679 94.9996 349.751 131.703C345.959 144.441 348.309 157.371 353.528 168.822L324.966 232.444L363.371 242.907L368.321 190.938Z" fill="#B28B67"/>
<path fill-rule="evenodd" clip-rule="evenodd" d="M413.139 147.039C413.315 144.491 413.005 141.524 412.782 139.007C412.496 135.763 411.645 132.677 410.612 129.705C408.668 124.11 406.014 118.813 402.812 114.145C396.966 105.618 388.486 99.3078 379.023 98.0287C374.245 97.383 369.304 98.0863 364.739 100.254C360.615 102.213 356.311 105.577 351.759 104.663C346.806 103.668 343.407 97.7544 340.158 93.7888C336.493 89.3177 332.345 85.6574 327.402 83.327C319.122 79.424 310.284 80.3966 302.571 86.5035C294.36 93.0023 287.006 103.808 288.678 115.838C288.988 118.074 289.593 120.053 290.697 121.857C291.711 123.511 293.393 125.436 293.451 127.655C293.512 130.013 291.179 132.397 290.072 134.209C288.487 136.803 287.036 139.585 286.602 142.757C285.891 147.966 287.712 153.62 290.043 157.806C292.416 162.066 295.846 165.073 299.781 167.1C302.408 168.453 305.156 169.554 308.017 170.094C309.436 170.362 310.764 170.274 312.191 170.306C313.58 170.337 314.228 170.918 315.163 172.008C319.507 177.071 324.753 180 330.856 181.086C336.007 182.002 342.128 182.253 347.106 179.602C352.633 176.659 353.861 170.857 354.192 164.392C355.193 165.319 358.258 166.56 356.935 163.59C356.41 162.414 355.091 161.634 354.263 160.801C353.3 159.831 352.364 158.661 351.746 157.339C349.25 151.999 354.82 144.031 359.551 143.757C366.579 143.35 365.742 153.822 369.809 157.697C372.146 159.925 375.417 158.641 377.904 157.097C381.232 155.029 383.912 151.817 386.356 148.472C388.369 145.718 390.303 142.894 392.337 140.162C393.287 138.886 396.368 135.386 395.661 133.459C400.57 133.715 405.297 137.254 408.689 141.132C410.092 142.735 411.072 144.348 411.497 146.619C411.588 147.106 411.707 148.511 412.216 148.705C413.161 149.068 413.094 147.679 413.139 147.039Z" fill="#191847"/>
<path fill-rule="evenodd" clip-rule="evenodd" d="M510.36 413.092L458.435 369.953L446.307 401.086L498.017 425.643C512.446 444.8 520.558 452.826 522.351 449.721C523.863 447.103 522.755 444.604 521.732 442.301C520.935 440.51 520.192 438.836 520.784 437.319C522.134 433.855 532.023 434.41 541.386 435.375C550.751 436.342 548.091 431.738 545.866 429.448C536.395 423.014 524.559 417.562 510.36 413.092ZM233.337 482.072C238.339 471.471 256.461 367.556 256.461 367.556L290.917 368.361C290.917 368.361 257.207 480.142 254.553 486.972C251.105 495.841 256.511 508.928 260.178 517.802C260.744 519.175 261.269 520.446 261.714 521.585C256.392 524.063 253.904 520.898 251.282 517.562C248.32 513.794 245.187 509.808 237.602 513.483C234.671 514.904 231.892 516.596 229.177 518.248C219.801 523.958 211.185 529.203 199.709 521.173C197.889 519.9 195.948 515.2 200.876 511.65C213.154 502.805 230.89 487.256 233.337 482.072Z" fill="#B28B67"/>
<path fill-rule="evenodd" clip-rule="evenodd" d="M356.906 211.691L371.207 209.294C423.314 260.159 443.514 356.349 507.551 408.323L491.605 429.13C379.35 411.791 353.334 294.434 356.906 211.691Z" fill="#E87613"/>
<path fill-rule="evenodd" clip-rule="evenodd" d="M291.627 405.977C291.627 405.977 377.384 407.613 417.79 408.383C423.555 408.493 422.614 399.393 421.853 394.794C413.081 341.725 376.445 284.001 377.648 208.718L341.356 201.801C310.412 254.036 298.965 318.857 291.627 405.977Z" fill="#DDE3E9"/>
<path fill-rule="evenodd" clip-rule="evenodd" d="M276.837 443.482C270.929 458.23 265.163 471.085 259.765 480.943L232.707 480.427C231.435 377.693 268.333 299.365 298.918 252.296C292.303 251.652 286.375 248.516 282.716 241.007C269.833 214.571 274.867 200.248 289.157 195.781C297.016 193.324 304.338 195.244 313.104 197.54C320.278 199.42 328.416 201.551 338.606 201.747C338.609 201.747 338.612 201.747 338.615 201.747C339.604 201.766 340.5 201.855 341.315 202.009L353.378 202.992C353.378 202.992 399.51 385.193 376.557 445.384L276.837 443.482Z" fill="#FF9B21"/>
<path fill-rule="evenodd" clip-rule="evenodd" d="M276.837 443.482C284.587 424.132 292.58 401.527 300.297 378.17C302.616 404.097 306.751 430.173 314.108 444.193L276.837 443.482Z" fill="black" fill-opacity="0.1"/>
</svg>
