<svg width="335" height="470" viewBox="0 0 335 470" fill="none" xmlns="http://www.w3.org/2000/svg">
<path fill-rule="evenodd" clip-rule="evenodd" d="M165.579 89.0998C158.565 93.3283 151.674 95.3714 148.439 94.5374C140.327 92.446 139.582 62.7643 145.858 51.0628C152.134 39.3613 184.4 34.2611 186.026 57.4454C186.59 65.492 183.212 72.673 178.222 78.5326L187.17 120.252H161.176L165.579 89.0998Z" fill="#B28B67"/>
<path fill-rule="evenodd" clip-rule="evenodd" d="M160.674 37.5765C164.1 37.0145 173.324 36.6282 175.025 36.6284C176.113 36.6284 177.291 36.8769 177.935 35.8784C178.462 35.0608 178.269 33.678 178.426 32.7291C178.609 31.6269 178.868 30.5389 179.131 29.4537C179.878 26.3655 181.008 23.4275 182.588 20.6691C185.554 15.494 189.899 11.4404 195.384 9.0815C201.441 6.47703 208.295 5.88065 214.81 6.40894C221.782 6.97414 228.094 9.2763 234.677 11.4429C240.95 13.5074 247.52 14.32 254.081 13.3118C260.692 12.2961 265.687 8.7124 271.263 5.31096C276.971 1.82872 283.494 -0.448793 290.242 0.0747489C296.541 0.563629 302.347 3.16515 307.555 6.6404C312.429 9.8919 316.45 13.8039 318.72 19.3098C321.162 25.2324 321.16 31.7334 317.144 36.9676C311.322 44.5547 300.516 46.5167 291.525 46.3216C286.324 46.2091 281.217 45.2596 276.307 43.5323C269.759 41.2286 264.101 37.3241 257.975 34.1561C255.1 32.6695 252.129 31.4486 249.014 30.5691C245.991 29.7153 243.014 29.3237 240.278 31.15C237.383 33.0821 234.789 34.98 231.477 36.1894C228.3 37.3498 224.935 37.9988 221.55 37.9726C214.964 37.9217 208.472 35.8692 202.075 34.4943C196.859 33.3734 191.278 32.2562 185.96 33.3338C183.741 33.7835 180.5 34.7118 179.699 37.0185C193.188 39.4639 198.486 56.1505 194.683 68.4001C192.63 75.0116 180.293 82.7405 175.496 79.2647C172.457 77.0627 174.302 74.1718 175.496 72.2635C177.783 68.6089 178.565 63.9144 174.334 61.37C170.684 59.1756 166.847 64.3868 166.774 64.3811C165.771 64.302 157.103 59.3989 151.132 52.2439C145.24 52.5932 144.347 48.7077 145.753 45.5301C147.16 42.3525 155.94 38.3535 160.674 37.5765Z" fill="#191847"/>
<path fill-rule="evenodd" clip-rule="evenodd" d="M193.669 210.172L113.189 344.754L52.8522 458.531H39.8562L140.951 210.172H193.669Z" fill="#997659"/>
<path fill-rule="evenodd" clip-rule="evenodd" d="M57.9602 451.995C59.0302 451.52 60.3042 451.994 60.7062 453.094C61.5002 455.266 62.6162 458.653 62.6162 460.54C62.6162 463.471 61.6392 469.094 61.6392 469.094C58.2412 469.094 0.552216 469.094 0.552216 469.094C0.552216 469.094 -1.82979 461.219 3.30121 460.591C8.43121 459.963 11.8242 459.457 11.8242 459.457L40.2952 446.762C40.8102 446.533 41.4122 446.773 41.6272 447.294L43.4852 451.801C43.4852 451.801 48.2342 454.017 51.2032 454.017C53.0632 454.017 56.0132 452.861 57.9602 451.995Z" fill="#E4E4E4"/>
<path fill-rule="evenodd" clip-rule="evenodd" d="M69.6092 440.312L44.5461 432.729C44.5461 432.729 61.0172 383.477 84.9211 324.33C108.825 265.182 136.265 210.172 136.265 210.172H207.051C207.051 210.172 176.544 279.757 142.368 336.627C108.191 393.496 69.6092 440.312 69.6092 440.312Z" fill="#DB2721"/>
<path fill-rule="evenodd" clip-rule="evenodd" d="M198.958 210.172C206.554 257.465 221.204 317.887 222.587 319.752C223.508 320.995 256.691 332.117 322.134 353.117L319.327 364.58C241.286 353.317 200.165 344.579 195.964 338.366C189.663 329.046 158.2 255.416 146.013 210.172H198.958Z" fill="#B28B67"/>
<path fill-rule="evenodd" clip-rule="evenodd" d="M299.13 343.208L294.185 361.67C235.815 366.791 200.05 363.09 186.891 350.57C173.732 338.049 158.735 291.25 141.899 210.172H209.397C220.064 276.564 226.028 311.154 227.288 313.941C228.548 316.728 252.495 326.484 299.13 343.208Z" fill="#FF4133"/>
<path fill-rule="evenodd" clip-rule="evenodd" d="M317.172 350.913C316.89 349.777 317.579 348.605 318.732 348.4C321.008 347.995 324.537 347.484 326.395 347.811C329.28 348.32 334.646 350.258 334.646 350.258C334.056 353.606 324.038 410.434 324.038 410.434C324.038 410.434 315.872 411.411 316.145 406.249C316.418 401.086 316.509 397.655 316.509 397.655L308.953 367.405C308.816 366.858 309.158 366.307 309.708 366.186L314.469 365.139C314.469 365.139 317.476 360.846 317.991 357.921C318.314 356.09 317.687 352.981 317.172 350.913Z" fill="#E4E4E4"/>
<path fill-rule="evenodd" clip-rule="evenodd" d="M69.7942 222.908L100.475 192.97L110.666 210.607L78.7611 229.423C70.7611 242.028 66.0632 247.473 64.6662 245.761C63.4882 244.317 64.0282 242.735 64.5251 241.277C64.9131 240.142 65.2742 239.082 64.7782 238.223C63.6442 236.26 57.2381 237.384 51.2051 238.71C45.1721 240.037 46.5682 237.073 47.8502 235.525C53.5522 230.923 60.8672 226.717 69.7942 222.908ZM250.641 266.406C247.467 259.965 236.659 197.192 236.659 197.192L214.025 197.281C214.025 197.281 234.988 264.971 236.659 269.112C238.829 274.492 235.142 282.308 232.643 287.609C232.256 288.429 231.897 289.189 231.594 289.87C235.062 291.423 236.729 289.547 238.485 287.568C240.469 285.334 242.569 282.968 247.511 285.268C249.421 286.157 251.228 287.207 252.993 288.234C259.091 291.779 264.693 295.036 272.313 290.333C273.521 289.587 274.845 286.78 271.646 284.586C263.677 279.12 252.193 269.554 250.641 266.406Z" fill="#B28B67"/>
<path fill-rule="evenodd" clip-rule="evenodd" d="M172.338 102.196L162.972 100.589C146.847 140.879 118.696 177.488 78.5172 210.414L108.878 247.311C149.052 200.426 173.816 152.055 172.338 102.196Z" fill="#191847"/>
<path fill-rule="evenodd" clip-rule="evenodd" d="M213.164 219.922H129.767C129.767 219.922 158.749 149.436 158.749 100.168L183.906 96.4187C203.677 128.225 209.26 167.383 213.164 219.922Z" fill="#DDE3E9"/>
<path fill-rule="evenodd" clip-rule="evenodd" d="M251.072 255.672C241.952 152.748 184.458 96.4187 184.458 96.4187L184.438 96.4365C184.435 96.4306 184.432 96.4246 184.428 96.4187H182.786C179.839 96.5202 173.808 96.7845 173.808 96.7845L167.729 114.161C166.764 145.94 156.464 242.245 156.464 242.245H211.053C210.96 246.661 210.754 251.138 210.424 255.672H251.072Z" fill="#2F3676"/>
<path fill-rule="evenodd" clip-rule="evenodd" d="M211.043 242.672C211.479 223.443 209.773 205.388 206.928 189.048C205.44 208.437 202.33 231.767 195.835 242.672H211.043Z" fill="black" fill-opacity="0.1"/>
<path fill-rule="evenodd" clip-rule="evenodd" d="M198.964 209.087L172.007 196.552V209.087H198.964Z" fill="white" fill-opacity="0.2"/>
</svg>
