<svg width="176" height="58" viewBox="0 0 176 58" fill="none" xmlns="http://www.w3.org/2000/svg">
<g clip-path="url(#clip0_3334_655)">
<path d="M158.659 44.3866C158.986 44.3866 159.256 44.348 159.965 44.2281C162.251 43.8681 164.102 43.7277 166.172 43.7277C172.107 43.7277 175.866 45.0446 175.866 47.178V53.5751C175.866 53.736 175.485 53.8752 175.049 53.8752H171.565C171.128 53.8752 170.748 53.736 170.748 53.5751V47.2178C170.748 45.7818 168.73 45.1047 164.429 45.1047C163.065 45.1047 161.923 45.1839 160.725 45.3424C159.094 45.5632 158.494 45.8408 158.494 46.3991V53.5752C158.494 53.7359 158.166 53.8752 157.677 53.8752H154.243C153.807 53.8752 153.432 53.7359 153.432 53.5752V40.2203C153.432 40.0618 153.807 39.9224 154.243 39.9224H157.677C158.166 39.9224 158.494 40.0618 158.494 40.2203V44.3662L158.659 44.3865V44.3866ZM108.953 49.1343C108.953 51.1855 112.493 52.5614 117.828 52.5614C119.737 52.5614 122.24 52.2817 124.415 51.8241L124.852 51.7448C125.071 51.684 125.399 51.6647 125.56 51.6647C125.994 51.6647 126.325 51.8039 126.325 51.9817V52.7609C126.325 53.0792 126.161 53.1584 125.127 53.3188C122.784 53.7175 119.737 53.9586 117.013 53.9586C108.953 53.9586 103.885 52.0031 103.885 48.9139C103.885 45.6852 108.622 43.6525 116.194 43.6525C123.277 43.6525 127.905 45.4463 127.905 48.1766V48.7147C127.905 48.8741 127.578 49.0136 127.085 49.0136H108.953V49.1345H108.953V49.1343ZM122.84 47.4191C122.84 46.0034 120.065 45.0275 115.977 45.0275C111.946 45.0275 109.006 46.1033 108.953 47.6186H122.84V47.4191ZM150.584 51.8811C150.968 51.8811 151.295 52.0204 151.295 52.24V53.0373C151.295 53.2774 151.131 53.3759 150.584 53.4758C148.733 53.8141 145.574 54.0338 142.746 54.0338C134.196 54.0338 129.125 52.1415 129.125 48.9119C129.125 45.7025 134.574 43.7278 143.452 43.7278C145.791 43.7278 148.131 43.8886 150.312 44.2281C151.079 44.3259 151.295 44.4273 151.295 44.6063V45.5428C151.295 45.7423 151.023 45.8808 150.584 45.8808C150.312 45.8808 150.204 45.8634 149.715 45.7617C147.427 45.3031 145.63 45.1241 143.344 45.1241C137.681 45.1241 134.466 46.4601 134.466 48.8306C134.466 51.2437 137.789 52.6387 143.452 52.6387C145.466 52.6387 147.536 52.4396 149.495 52.0409L149.77 52.0023C150.095 51.9209 150.368 51.8811 150.584 51.8811V51.8811ZM86.7358 45.2064C86.2971 45.2064 85.919 45.0669 85.919 44.9074V44.1109C85.919 43.9504 86.2971 43.8111 86.7358 43.8111H89.7342V41.46C89.7342 41.3003 90.0587 41.1601 90.5475 41.1601H93.9764C94.4125 41.1601 94.796 41.3003 94.796 41.46V43.8111H102.637C103.071 43.8111 103.451 43.9504 103.451 44.111V44.9074C103.451 45.0873 103.071 45.2064 102.637 45.2064H94.7959V50.9873C94.7959 52.0826 95.9964 52.5613 98.7168 52.5613C99.6976 52.5613 100.676 52.4829 101.492 52.3223L102.096 52.2024C102.365 52.1626 102.585 52.1433 102.746 52.1433C103.182 52.1433 103.451 52.2611 103.451 52.4627V53.1796C103.451 53.3779 103.346 53.4582 102.854 53.5375C101.492 53.7978 99.1501 53.9584 97.189 53.9584C92.4538 53.9584 89.7343 53.0191 89.7343 51.4063V45.2064L86.7358 45.2064ZM77.1916 53.5751V44.1873C77.1916 44.0277 77.5721 43.8884 78.006 43.8884H81.4378C81.9292 43.8884 82.2545 44.0277 82.2545 44.1873V53.5751C82.2545 53.736 81.9292 53.8752 81.4378 53.8752H78.006C77.5721 53.8752 77.1916 53.736 77.1916 53.5751ZM79.7503 39.9224C81.7618 39.9224 82.7986 40.321 82.7986 41.039C82.7986 41.7752 81.7619 42.1546 79.6922 42.1546C77.6807 42.1546 76.6439 41.756 76.6439 41.0186C76.6439 40.3404 77.7891 39.9224 79.7503 39.9224ZM65.9444 53.3353C63.9294 53.7147 62.0793 53.8752 60.0616 53.8752C52.2765 53.8752 47.0996 51.8811 47.0996 48.8912C47.0996 45.8407 52.6569 43.7276 60.6614 43.7276C62.2961 43.7276 63.8182 43.8293 65.0187 44.0083C65.3441 44.0674 65.8355 44.168 66.4335 44.3084C66.7634 44.3662 66.8722 44.3865 67.1998 44.3865L67.414 44.3662V44.2279C67.414 43.9877 67.6889 43.8884 68.2309 43.8884H71.1175C71.6066 43.8884 71.9351 44.0276 71.9351 44.1872V54.0935C71.9351 56.6431 67.4141 57.9997 59.0284 57.9997C55.9253 57.9997 52.3298 57.7799 49.9314 57.422C48.7342 57.2429 48.4641 57.1432 48.4641 56.8635V56.0276C48.4641 55.8272 48.7342 55.6881 49.1707 55.6881C49.3895 55.6881 49.6588 55.7279 49.8787 55.7673L50.5875 55.9065C52.763 56.3255 56.0332 56.6032 58.7559 56.6032C61.262 56.6032 63.4934 56.4061 64.9633 56.0448C66.2692 55.7073 66.8725 55.1694 66.8725 54.1921V53.2352C66.489 53.2352 66.4338 53.2565 65.9446 53.3349L65.9442 53.3354L65.9444 53.3353ZM65.8913 45.5632C64.802 45.2825 63.1128 45.124 61.2068 45.124C55.6525 45.124 52.4374 46.4804 52.4374 48.8305C52.4374 51.0443 55.8131 52.4789 61.098 52.4789C62.7323 52.4789 64.4745 52.3192 65.6718 52.1019C66.5974 51.9209 66.8723 51.7419 66.8723 51.3432V46.2802C66.8721 45.8806 66.7083 45.7616 65.8913 45.5632ZM31.9293 43.7277C40.1508 43.7277 45.055 45.6832 45.055 48.9514C45.055 52.2005 40.0976 54.2129 32.0931 54.2129C23.924 54.2129 18.8588 52.2004 18.8588 48.9699C18.8588 45.7209 23.813 43.7277 31.9293 43.7277ZM26.3718 51.9796C27.5723 52.5187 29.5868 52.8176 31.9818 52.8176C37.1551 52.8176 39.7172 51.5416 39.7172 48.9513C39.7172 46.3592 37.1552 45.1046 31.9293 45.1046C26.6994 45.1046 24.1965 46.34 24.1965 48.991C24.1965 50.4667 24.7963 51.2833 26.3718 51.9796ZM19.2533 52.3611C19.5809 52.3611 19.9028 52.483 19.9028 52.6011V53.5792C19.9028 53.6983 19.581 53.7979 19.2534 53.7979H1.49787C1.17315 53.7979 0.900879 53.6982 0.900879 53.5792V40.7231C0.900879 40.6028 1.17339 40.5033 1.49787 40.5033H5.58246C5.90776 40.5033 6.18038 40.6028 6.18038 40.7231V52.3611H19.2532L19.2533 52.3611Z" fill="black"/>
<path d="M120.251 6.90961C128.765 5.26629 135.002 3.06059 134.186 1.98279C133.371 0.904723 129.71 0.4686 126.011 1.01047C122.316 1.55073 116.081 3.75723 112.08 5.9353C108.081 8.11562 111.741 8.55174 120.252 6.90961H120.251Z" fill="#E9132E"/>
<path d="M131.101 19.0194C135.85 19.8006 142.235 19.8247 146.791 19.1333C151.668 18.4551 153.569 17.5217 150.415 17.0224C146.878 16.5079 136.213 16.3056 128.567 16.6544C122.718 17.0764 125.094 18.1867 131.101 19.0194ZM119.867 29.9846C125.199 32.3814 133.376 34.6575 137.55 34.8159C140.745 34.6238 139.039 32.6894 134.96 30.9355C131.287 29.3378 125.102 27.9071 120.507 27.4455C115.808 26.8841 115.033 27.8033 119.867 29.9846ZM95.9836 22.7028C93.9491 22.6754 91.4059 22.0143 91.068 22.2962C90.3559 22.89 93.6577 24.6373 98.2009 24.0859C99.2498 23.9584 100.914 23.5734 101.393 23.419C105.598 22.0634 99.1978 22.8563 95.9836 22.7028ZM101.179 14.9673C97.2011 15.1929 89.7773 17.3856 92.2902 19.0938C92.4618 19.2106 93.4235 19.696 95.4965 19.9154C100.331 20.427 105.934 20.1628 108.214 18.5202C108.62 18.2277 109.206 17.8092 108.987 17.3326C108.436 16.1398 104.704 14.8005 101.179 14.9673ZM91.401 14.4669C85.6579 14.7669 82.8152 16.3877 85.3105 18.799C85.4714 18.9546 86.0501 18.9134 86.189 18.7206C86.7872 17.8881 87.204 17.19 88.5564 16.4469C90.2373 15.5236 92.8873 15.2792 94.511 14.5425C95.1179 14.2669 92.4739 14.411 91.401 14.4669V14.4669ZM86.9747 12.2257C88.8644 12.0101 89.8966 11.8979 92.11 11.7642C96.6253 11.4915 107.649 12.0186 110.926 12.6304C116.079 13.5917 121.042 14.996 119.992 17.364C118.965 19.6824 114.338 20.958 110.328 22.3181C106.406 23.6492 102.356 24.8575 96.1385 25.4463C93.4437 25.7014 87.4554 25.2745 85.7553 24.2962C85.1158 23.9284 84.5125 23.492 83.9682 23.1328C82.8303 22.3801 83.004 22.3052 80.8233 21.8527C78.3359 21.3361 75.7324 20.7264 74.2546 19.7536C73.3041 19.1273 71.8374 17.1521 72.8267 16.2842C74.7896 14.5614 82.0685 12.7823 86.9747 12.2257V12.2257Z" fill="black"/>
<path d="M45.6192 5.1364C36.0666 8.58759 26.6444 14.3309 29.4783 21.0414C31.1039 25.0539 36.8608 28.0018 41.7904 30.1995C48.2528 32.9418 58.5393 35.4598 67.5943 34.8781C71.7706 34.576 74.9962 33.3253 76.5164 32.2993C82.3567 28.3518 70.4346 23.1024 69.0867 21.3271C66.4253 18.7951 66.7724 17.4568 67.3341 14.9755C68.2255 11.0475 75.6253 6.68414 77.4808 5.57362C79.4957 4.36774 81.4041 3.38123 82.8965 2.46688C83.2604 2.24246 84.1886 1.72677 83.8158 1.18778C83.3385 0.510636 80.8288 0.16272 78.7087 0.0621842C77.9031 0.02461 77.0923 0.00392956 76.2803 0.000244141H75.8179C73.4794 0.00880221 71.4482 0.15412 69.6234 0.298082C62.9296 0.824827 57.6919 1.75821 54.0466 2.63198C51.3933 3.26828 48.4726 4.10303 45.6191 5.1364H45.6192Z" fill="#009B85"/>
</g>
<defs>
<clipPath id="clip0_3334_655">
<rect width="175" height="58" fill="white" transform="translate(0.883301)"/>
</clipPath>
</defs>
</svg>
