<svg width="59" height="58" viewBox="0 0 59 58" fill="none" xmlns="http://www.w3.org/2000/svg">
<path d="M20.0234 4.88005C21.9288 4.88005 23.7915 5.47827 25.3759 6.59906C26.9602 7.71985 28.195 9.31287 28.9242 11.1767C29.6534 13.0405 29.8442 15.0914 29.4725 17.07C29.1007 19.0486 28.1832 20.866 26.8358 22.2925C25.4884 23.719 23.7718 24.6905 21.9029 25.0841C20.034 25.4776 18.0969 25.2756 16.3365 24.5036C14.5761 23.7316 13.0714 22.4242 12.0128 20.7469C10.9542 19.0695 10.3891 17.0974 10.3891 15.08C10.3891 12.3748 11.4042 9.78043 13.2109 7.86756C15.0177 5.95469 17.4682 4.88005 20.0234 4.88005ZM20.0234 0.800049C17.3557 0.800049 14.7479 1.63756 12.5299 3.20666C10.3118 4.77577 8.583 7.006 7.56213 9.61533C6.54126 12.2247 6.27416 15.0959 6.79459 17.8659C7.31503 20.636 8.59963 23.1804 10.4859 25.1775C12.3723 27.1746 14.7756 28.5347 17.392 29.0857C20.0084 29.6367 22.7204 29.3539 25.185 28.273C27.6496 27.1922 29.7561 25.3619 31.2382 23.0136C32.7202 20.6653 33.5113 17.9044 33.5113 15.08C33.5113 11.2928 32.0902 7.66058 29.5608 4.98256C27.0313 2.30454 23.6006 0.800049 20.0234 0.800049ZM39.2918 57.92H35.4381V47.72C35.4381 45.0148 34.4231 42.4204 32.6163 40.5076C30.8096 38.5947 28.3591 37.52 25.8039 37.52H14.2428C11.6877 37.52 9.23715 38.5947 7.43038 40.5076C5.62361 42.4204 4.60858 45.0148 4.60858 47.72V57.92H0.754883V47.72C0.754883 43.9328 2.17593 40.3006 4.70541 37.6226C7.23488 34.9445 10.6656 33.44 14.2428 33.44H25.8039C29.3811 33.44 32.8118 34.9445 35.3413 37.6226C37.8708 40.3006 39.2918 43.9328 39.2918 47.72V57.92ZM39.2918 4.88005H58.5603V8.96005H39.2918V4.88005ZM39.2918 15.08H58.5603V19.16H39.2918V15.08ZM39.2918 25.28H52.7798V29.36H39.2918V25.28Z" fill="#1A1A1A"/>
</svg>
