<svg width="112" height="38" viewBox="0 0 112 38" fill="none" xmlns="http://www.w3.org/2000/svg">
<path d="M111.814 9.27111C113.338 18.0058 89.5598 29.4439 58.6982 34.8184C27.8411 40.1929 1.59082 37.4663 0.069128 28.727C-1.45256 19.9923 22.3325 8.55652 53.1896 3.18435C84.0489 -2.19476 110.295 0.534111 111.814 9.27111Z" fill="#034EA2"/>
<path d="M85.4755 24.6013H81.3591L78.5007 15.2076H78.4383L78.5979 24.6013H75.7511V13.154H80.0479L82.7074 22.2355H82.7698L82.6125 13.154H85.4755V24.6013ZM30.7779 14.227H30.7132L29.129 24.7216H26.0047L28.1485 13.154H33.294L35.4309 24.7216H32.3181L30.7779 14.227ZM44.1401 21.9973H44.2026L45.6317 13.154H50.3495L50.5992 24.7216H47.7085L47.6321 14.3218H47.572L45.6387 24.7216H42.704L40.7684 14.3218H40.7059L40.6342 24.7216H37.7365L37.9932 13.154H42.7132L44.1401 21.9973ZM21.1344 21.4585C21.2477 21.7383 21.213 22.0991 21.1598 22.3165C21.0627 22.7004 20.8014 23.0935 20.0336 23.0935C19.3074 23.0935 18.868 22.6773 18.868 22.0436V20.9243H15.7645L15.7622 21.8193C15.7622 24.3978 17.7927 25.1772 19.9688 25.1772C22.0617 25.1772 23.7846 24.4626 24.0575 22.5339C24.1986 21.5348 24.0922 20.8804 24.0459 20.6329C23.558 18.2116 19.1664 17.4878 18.8403 16.1349C18.7848 15.9036 18.801 15.6562 18.8287 15.5244C18.9097 15.1567 19.1617 14.7497 19.8856 14.7497C20.5609 14.7497 20.9609 15.1682 20.9609 15.7996V16.5142H23.8447V15.7025C23.8447 13.1817 21.583 12.7886 19.9457 12.7886C17.8875 12.7886 16.2062 13.4685 15.8987 15.3509C15.8154 15.8713 15.8038 16.3338 15.9241 16.9143C16.4305 19.2754 20.5377 19.9599 21.1344 21.4585ZM58.7488 21.4377C58.8621 21.7152 58.8251 22.0667 58.7743 22.2841C58.6794 22.668 58.4204 23.0542 57.6573 23.0542C56.9427 23.0542 56.5056 22.6379 56.5056 22.0182L56.5033 20.9081H53.4321L53.4275 21.7915C53.4275 24.3446 55.4395 25.1147 57.5925 25.1147C59.6623 25.1147 61.369 24.4094 61.6396 22.4992C61.7806 21.5071 61.6812 20.8619 61.6303 20.619C61.1447 18.2209 56.7993 17.504 56.4755 16.1627C56.42 15.9314 56.4362 15.6886 56.464 15.5637C56.5472 15.1914 56.7947 14.7959 57.5116 14.7959C58.1822 14.7959 58.5731 15.2029 58.5731 15.832V16.5396H61.4361V15.7348C61.4361 13.2418 59.1928 12.851 57.5694 12.851C55.5343 12.851 53.8669 13.5217 53.5663 15.3926C53.483 15.906 53.4738 16.3592 53.594 16.9374C54.0912 19.2754 58.1591 19.9553 58.7488 21.4377ZM68.464 22.9918C69.2665 22.9918 69.5163 22.4367 69.5718 22.1523C69.5949 22.0274 69.6018 21.8609 69.5995 21.7106V13.1493H72.525V21.4469C72.5319 21.6597 72.5111 22.0968 72.4995 22.2055C72.2937 24.3655 70.587 25.0662 68.4617 25.0662C66.3341 25.0662 64.6251 24.3655 64.4216 22.2055C64.4124 22.0968 64.3916 21.6574 64.3962 21.4469V13.1493H67.3193V21.7083C67.3193 21.8586 67.3239 22.0274 67.3471 22.15C67.4118 22.4344 67.6546 22.9918 68.464 22.9918ZM92.596 22.8692C93.4332 22.8692 93.7269 22.3396 93.7801 22.032C93.8009 21.9002 93.8078 21.7383 93.8055 21.5926V19.9137H92.6192V18.2255H96.7217V21.3313C96.7194 21.5487 96.7148 21.7083 96.6801 22.0945C96.4881 24.1989 94.6612 24.9505 92.6122 24.9505C90.5586 24.9505 88.7363 24.1989 88.5397 22.0945C88.5074 21.7083 88.5027 21.5487 88.4981 21.3313L88.5004 16.461C88.5004 16.2552 88.5259 15.8921 88.549 15.6978C88.8057 13.5355 90.5586 12.8395 92.6122 12.8395C94.6635 12.8395 96.4604 13.5309 96.6731 15.6978C96.7101 16.0655 96.6986 16.461 96.6986 16.461V16.8472H93.7824V16.1997C93.7847 16.202 93.7778 15.9245 93.7454 15.7603C93.6968 15.5036 93.4748 14.9162 92.5914 14.9162C91.7473 14.9162 91.5022 15.4712 91.4397 15.7603C91.405 15.9129 91.3912 16.1187 91.3912 16.306V21.5973C91.3888 21.743 91.3981 21.9048 91.4212 22.0367C91.4675 22.3396 91.7589 22.8692 92.596 22.8692Z" fill="white"/>
</svg>
