<svg width="55" height="58" viewBox="0 0 55 58" fill="none" xmlns="http://www.w3.org/2000/svg">
<path d="M54.2763 55.0355L45.2432 45.472C47.6587 42.1826 48.7992 38.0422 48.4324 33.8938C48.0656 29.7454 46.2192 25.9009 43.2691 23.1433C40.319 20.3856 36.487 18.9221 32.5535 19.0507C28.6199 19.1794 24.8805 20.8904 22.0968 23.8356C19.313 26.7807 17.6942 30.7385 17.57 34.9029C17.4457 39.0674 18.8253 43.1254 21.4279 46.2507C24.0305 49.376 27.6604 51.3336 31.5785 51.7248C35.4965 52.116 39.4081 50.9115 42.5167 48.3565L51.5517 57.92L54.2763 55.0355ZM33.0809 47.72C30.7944 47.72 28.5592 47.0022 26.6579 45.6572C24.7567 44.3123 23.2749 42.4007 22.3999 40.1641C21.5249 37.9275 21.2959 35.4665 21.742 33.0921C22.1881 30.7178 23.2892 28.5369 24.906 26.8251C26.5229 25.1133 28.5829 23.9475 30.8255 23.4752C33.0681 23.003 35.3927 23.2453 37.5052 24.1718C39.6177 25.0982 41.4233 26.667 42.6936 28.6799C43.964 30.6927 44.642 33.0592 44.642 35.48C44.6385 38.7251 43.4193 41.8362 41.2519 44.1309C39.0846 46.4255 36.146 47.7163 33.0809 47.72ZM0.324524 21.2H15.7393V25.28H0.324524V21.2ZM0.324524 0.800049H31.1541V4.88005H0.324524V0.800049ZM0.324524 11H31.1541V15.08H0.324524V11Z" fill="#1A1A1A"/>
</svg>
