<svg width="55" height="52" viewBox="0 0 55 52" fill="none" xmlns="http://www.w3.org/2000/svg">
<path d="M54.459 17.9587C54.2609 17.7042 54.015 17.4999 53.7382 17.3599C53.4614 17.2198 53.1603 17.1473 52.8556 17.1473H40.1975V7.87459C40.1975 6.03013 39.5307 4.26121 38.3437 2.95698C37.1568 1.65275 35.547 0.920044 33.8684 0.920044H21.2103C19.5317 0.920044 17.9219 1.65275 16.735 2.95698C15.548 4.26121 14.8812 6.03013 14.8812 7.87459V17.1473H2.22309C1.91728 17.1435 1.61437 17.2128 1.33536 17.3504C1.05634 17.488 0.807892 17.6906 0.607214 17.9442C0.406537 18.1978 0.258433 18.4963 0.173165 18.819C0.0878975 19.1417 0.067504 19.481 0.113398 19.8132L4.07961 47.9791C4.23219 49.0847 4.74325 50.0924 5.51862 50.8166C6.29399 51.5408 7.28143 51.9327 8.29899 51.92H46.8219C47.8395 51.9327 48.8269 51.5408 49.6023 50.8166C50.3776 50.0924 50.8887 49.0847 51.0413 47.9791L54.9653 19.8132C55.0075 19.4823 54.9842 19.1452 54.8968 18.8251C54.8094 18.505 54.66 18.2094 54.459 17.9587ZM19.1006 7.87459C19.1006 7.25977 19.3229 6.67013 19.7185 6.23539C20.1141 5.80064 20.6508 5.55641 21.2103 5.55641H33.8684C34.4279 5.55641 34.9645 5.80064 35.3602 6.23539C35.7558 6.67013 35.9781 7.25977 35.9781 7.87459V17.1473H19.1006V7.87459ZM46.8219 47.2837H8.25679L4.69142 21.7837H50.3873L46.8219 47.2837Z" fill="#1A1A1A"/>
</svg>
