<svg width="45" height="44" viewBox="0 0 45 44" fill="none" xmlns="http://www.w3.org/2000/svg">
<path d="M39.7105 0H4.99471C2.38117 0 0.260742 2.11161 0.260742 4.71429V39.2857C0.260742 41.8884 2.38117 44 4.99471 44H39.7105C42.324 44 44.4445 41.8884 44.4445 39.2857V4.71429C44.4445 2.11161 42.324 0 39.7105 0ZM34.8878 15.5964C34.9075 15.8714 34.9075 16.1562 34.9075 16.4312C34.9075 24.9464 28.3983 34.758 16.5042 34.758C12.8353 34.758 9.43281 33.6973 6.5727 31.8705C7.09541 31.9295 7.5984 31.9491 8.13097 31.9491C11.1587 31.9491 13.9399 30.9277 16.159 29.1991C13.3186 29.1402 10.9319 27.2839 10.1133 24.7304C11.1094 24.8777 12.0069 24.8777 13.0326 24.6125C10.0739 24.0134 7.85482 21.4205 7.85482 18.2875V18.2089C8.71285 18.6902 9.71882 18.9848 10.7741 19.0241C9.8869 18.4364 9.1596 17.6392 8.6571 16.7035C8.1546 15.7678 7.89252 14.7227 7.89427 13.6616C7.89427 12.4634 8.20987 11.3634 8.77203 10.4107C11.9576 14.3196 16.7409 16.8732 22.106 17.1482C21.1888 12.7777 24.473 9.23214 28.418 9.23214C30.282 9.23214 31.9586 10.008 33.1421 11.2652C34.6017 10.9902 36.0022 10.45 37.2449 9.71339C36.7616 11.2062 35.7458 12.4634 34.4045 13.2589C35.7063 13.1214 36.9687 12.758 38.1325 12.2571C37.2547 13.5437 36.1502 14.683 34.8878 15.5964Z" fill="black"/>
</svg>
