<svg width="117" height="60" viewBox="0 0 117 60" fill="none" xmlns="http://www.w3.org/2000/svg">
<g clip-path="url(#clip0_3334_650)">
<path fill-rule="evenodd" clip-rule="evenodd" d="M0.883301 0H116.883V60H0.883301V0Z" fill="white"/>
<path fill-rule="evenodd" clip-rule="evenodd" d="M8.68387 31.899C9.20578 32.0936 9.7838 32.2443 10.3966 32.3457C11.6092 32.5437 12.9104 32.5436 14.1229 32.3454C14.7391 32.2444 15.3206 32.0938 15.8459 31.899C16.3755 31.7018 16.8411 31.4622 17.2252 31.1893C17.9773 30.6517 18.3813 30.0048 18.3794 29.3413C18.3794 29.0153 18.2843 28.6879 18.0906 28.3729C17.6949 27.728 16.9088 27.1659 15.8483 26.7698C15.3236 26.5744 14.7423 26.4233 14.1259 26.3222C12.9114 26.1231 11.6076 26.123 10.393 26.3219C9.1505 26.5277 8.0691 26.9349 7.30876 27.4833C6.93194 27.7549 6.64068 28.0557 6.44578 28.3744C6.25321 28.6894 6.15813 29.0163 6.15813 29.3413C6.15813 29.6662 6.25261 29.9896 6.44518 30.3018C6.8411 30.9446 7.62592 31.5045 8.68387 31.899ZM21.9252 13.8582H2.58887L12.2772 25.2116L21.9252 13.8582Z" fill="black"/>
<path fill-rule="evenodd" clip-rule="evenodd" d="M28.0613 41.2233C28.0606 41.5314 27.9433 41.8365 27.7158 42.1213C27.2545 42.6958 26.3718 43.1524 25.2611 43.391C24.7105 43.5086 24.1206 43.5692 23.5249 43.5694H22.6054C22.012 43.5694 21.418 43.5084 20.8692 43.391C19.7583 43.1525 18.8755 42.6959 18.4145 42.1213C18.1872 41.8365 18.07 41.5314 18.0696 41.2233L18.0618 35.9018L7.59717 35.8943V39.9119C7.59717 40.729 7.91251 41.5464 8.51551 42.3013C9.12289 43.0587 10.0121 43.747 11.1327 44.327C12.254 44.9065 13.5845 45.3663 15.0486 45.6804C16.5136 45.9935 18.083 46.155 19.668 46.1558H26.1379C27.7177 46.1558 29.2974 45.9927 30.7573 45.6804C32.2215 45.3664 33.552 44.9065 34.6732 44.327C35.7939 43.747 36.6832 43.0587 37.2904 42.3013C37.8955 41.5435 38.2074 40.7317 38.2088 39.9119V13.8822L28.0565 13.8897L28.0613 41.2233ZM105.405 35.9018L105.396 40.6266C105.396 40.9335 105.278 41.241 105.052 41.5246C104.824 41.8092 104.489 42.0677 104.068 42.2857C103.647 42.5037 103.147 42.6765 102.597 42.7943C102.046 42.912 101.456 42.9727 100.861 42.973H99.9417C99.346 42.9726 98.7562 42.9119 98.2055 42.7943C97.6551 42.6765 97.1551 42.5037 96.7341 42.2857C96.3147 42.0687 95.9771 41.8082 95.7502 41.5246C95.5233 41.241 95.4048 40.9338 95.4048 40.6266L95.4096 13.8897L85.2579 13.8822L85.2615 45.4859H115.17L115.179 35.8943L105.405 35.9018ZM76.7978 31.167C76.2965 30.5531 75.5679 29.9958 74.653 29.5266C73.7984 29.0882 72.7725 28.7494 71.644 28.533C72.5829 28.2999 73.4449 27.9917 74.1981 27.6197C74.9653 27.2427 75.6424 26.7961 76.0985 26.2924C76.5566 25.7844 76.794 25.2306 76.7942 24.67L76.8002 18.918C76.8002 18.2531 76.5439 17.5879 76.054 16.9744C75.5641 16.3609 74.8378 15.7994 73.9303 15.3303C73.0239 14.8612 71.9389 14.4852 70.7534 14.2312C69.5678 13.9772 68.283 13.8442 66.997 13.8442H46.8079V45.4875H67.7654C69.7043 45.4874 71.5996 45.19 73.2117 44.6328C74.8238 44.0756 76.0804 43.2838 76.8225 42.3573C77.314 41.7409 77.5676 41.0807 77.5687 40.414C77.5687 37.9889 77.5567 35.564 77.5687 33.1392C77.5687 32.4618 77.3065 31.7912 76.7978 31.167ZM56.6587 16.5704L61.9719 16.561C62.5677 16.5608 63.1577 16.6214 63.7082 16.7393C64.2586 16.8573 64.7586 17.0302 65.1795 17.2483C65.6002 17.4656 65.9366 17.7258 66.1635 18.0094C66.3903 18.293 66.5065 18.6002 66.5089 18.9074L66.5372 25.2515C66.5374 25.637 66.3166 26.0138 65.9025 26.3343C65.4885 26.6548 64.8999 26.9046 64.2112 27.0519C63.7538 27.1491 63.2644 27.1995 62.7699 27.2004L56.6587 27.2125V16.5704ZM66.6347 41.3877C66.4455 41.6241 66.168 41.8389 65.8182 42.0198C65.4683 42.2007 65.0529 42.3442 64.5958 42.4419C64.1386 42.5394 63.649 42.5898 63.1545 42.5904L56.6593 42.6026V30.0557L62.3565 30.0464C62.9523 30.046 63.5424 30.1065 64.0929 30.2245C64.6434 30.3424 65.1433 30.5155 65.5641 30.7337C65.9835 30.9506 66.3211 31.2112 66.548 31.4947C66.7749 31.7783 66.8922 32.0855 66.8934 32.3928L66.9217 40.6422C66.9211 40.898 66.8236 41.1512 66.6347 41.3877Z" fill="black"/>
</g>
<defs>
<clipPath id="clip0_3334_650">
<rect width="116" height="60" fill="white" transform="translate(0.883301)"/>
</clipPath>
</defs>
</svg>
